<svg xmlns="http://www.w3.org/2000/svg" width="120" height="120" fill="none"><path fill="url(#a)" d="M0 0h120v120H0z"/><path fill="#fff" d="M59.4 97c-4 0-7.5-.6-10.4-1.9-3-1.2-5.2-3.4-6.8-6.5A31.7 31.7 0 0 1 40 75.4v-4.2h12v5.2c0 3.4.4 6.1 1 8a7.4 7.4 0 0 0 2.8 4c1.1.6 2.4 1 3.9 1 2.4 0 4.3-.8 5.7-2.4 1.4-1.7 2.2-4.7 2.2-9.1 0-3.3-.5-5.8-1.5-7.5-1-1.6-2.6-3-4.7-4-2-1-4.7-2.2-8-3.5-2.7-1.2-5-2.7-7-4.3-2-1.7-3.4-3.8-4.4-6.3-1-2.6-1.5-5.7-1.5-9.5 0-4.6.6-8.4 1.7-11.3 1.2-3 3.3-5 6.2-6.4C51.2 23.7 55 23 59.9 23c6.3 0 11 1.4 14.3 4.3 3.3 2.8 5 7 5 12.4v8.5H67.5v-5c0-3.9-.6-6.6-1.9-8.2-1.1-1.7-3-2.6-5.6-2.6-2.7 0-4.7.8-6 2.5-1 1.5-1.7 4-1.7 7.5 0 3 .6 5.3 1.8 7 1.1 1.5 2.6 2.7 4.4 3.6 1.9 1 3.8 1.7 5.8 2.5 3.7 1.4 6.7 2.8 9 4.3s4 3.5 5 6c1 2.4 1.6 6 1.6 10.4 0 5.2-.9 9.4-2.6 12.4-1.6 3-4 5.1-7.1 6.4a27 27 0 0 1-10.9 2Z"/><defs><linearGradient id="a" x1="23.7" x2="126.9" y1="0" y2="12.8" gradientUnits="userSpaceOnUse"><stop stop-color="#ED0233"/><stop offset="1" stop-color="#003EB7"/></linearGradient></defs></svg>